<?xml version="1.0" encoding="UTF-8" standalone="no"?>
<!DOCTYPE svg PUBLIC "-//W3C//DTD SVG 1.1//EN"
 "http://www.w3.org/Graphics/SVG/1.1/DTD/svg11.dtd">
<!-- Generated by graphviz version 14.1.1 (20251213.1925)
 -->
<!-- Title: CFG Pages: 1 -->
<svg width="1475pt" height="745pt"
 viewBox="0.00 0.00 1475.00 745.00" xmlns="http://www.w3.org/2000/svg" xmlns:xlink="http://www.w3.org/1999/xlink">
<g id="graph0" class="graph" transform="scale(1 1) rotate(0) translate(14.4 730.46)">
<title>CFG</title>
<g id="clust1" class="cluster">
<title>cluster_R1</title>
<path fill="#e8f5e9" stroke="#81c784" stroke-width="1.2" d="M373.25,-18.06C373.25,-18.06 463.75,-18.06 463.75,-18.06 469.75,-18.06 475.75,-24.06 475.75,-30.06 475.75,-30.06 475.75,-115.06 475.75,-115.06 475.75,-121.06 469.75,-127.06 463.75,-127.06 463.75,-127.06 373.25,-127.06 373.25,-127.06 367.25,-127.06 361.25,-121.06 361.25,-115.06 361.25,-115.06 361.25,-30.06 361.25,-30.06 361.25,-24.06 367.25,-18.06 373.25,-18.06"/>
<text xml:space="preserve" text-anchor="start" x="371.25" y="-111.61" font-family="Helvetica,sans-Serif" font-weight="bold" font-size="11.00" fill="#37474f">R1</text>
<text xml:space="preserve" text-anchor="start" x="371.25" y="-96.61" font-family="Helvetica,sans-Serif" font-size="11.00" fill="#37474f">Super entry → start</text>
<text xml:space="preserve" text-anchor="start" x="371.25" y="-80.36" font-family="Helvetica,sans-Serif" font-size="11.00" fill="#37474f">start → n1</text>
</g>
<g id="clust2" class="cluster">
<title>cluster_R6</title>
<path fill="#e8f5e9" stroke="#81c784" stroke-width="1.2" d="M20,-135.06C20,-135.06 1203,-135.06 1203,-135.06 1209,-135.06 1215,-141.06 1215,-147.06 1215,-147.06 1215,-696.06 1215,-696.06 1215,-702.06 1209,-708.06 1203,-708.06 1203,-708.06 20,-708.06 20,-708.06 14,-708.06 8,-702.06 8,-696.06 8,-696.06 8,-147.06 8,-147.06 8,-141.06 14,-135.06 20,-135.06"/>
<text xml:space="preserve" text-anchor="start" x="18" y="-692.61" font-family="Helvetica,sans-Serif" font-weight="bold" font-size="11.00" fill="#37474f">R6</text>
<text xml:space="preserve" text-anchor="start" x="18" y="-677.61" font-family="Helvetica,sans-Serif" font-size="11.00" fill="#37474f">start → n1</text>
<text xml:space="preserve" text-anchor="start" x="18" y="-661.36" font-family="Helvetica,sans-Serif" font-size="11.00" fill="#37474f">n16 → end</text>
</g>
<g id="clust3" class="cluster">
<title>cluster_R5</title>
<path fill="#fff8e1" stroke="#ffb74d" stroke-width="1.2" d="M28,-260.06C28,-260.06 643.75,-260.06 643.75,-260.06 649.75,-260.06 655.75,-266.06 655.75,-272.06 655.75,-272.06 655.75,-631.06 655.75,-631.06 655.75,-637.06 649.75,-643.06 643.75,-643.06 643.75,-643.06 28,-643.06 28,-643.06 22,-643.06 16,-637.06 16,-631.06 16,-631.06 16,-272.06 16,-272.06 16,-266.06 22,-260.06 28,-260.06"/>
<text xml:space="preserve" text-anchor="start" x="26" y="-627.61" font-family="Helvetica,sans-Serif" font-weight="bold" font-size="11.00" fill="#37474f">R5</text>
<text xml:space="preserve" text-anchor="start" x="26" y="-612.61" font-family="Helvetica,sans-Serif" font-size="11.00" fill="#37474f">n1 → n2</text>
<text xml:space="preserve" text-anchor="start" x="26" y="-596.36" font-family="Helvetica,sans-Serif" font-size="11.00" fill="#37474f">n14 → n16</text>
</g>
<g id="clust4" class="cluster">
<title>cluster_R2</title>
<path fill="#fbe9e7" stroke="#ff8a65" stroke-width="1.2" d="M36,-277.06C36,-277.06 82,-277.06 82,-277.06 88,-277.06 94,-283.06 94,-289.06 94,-289.06 94,-374.06 94,-374.06 94,-380.06 88,-386.06 82,-386.06 82,-386.06 36,-386.06 36,-386.06 30,-386.06 24,-380.06 24,-374.06 24,-374.06 24,-289.06 24,-289.06 24,-283.06 30,-277.06 36,-277.06"/>
<text xml:space="preserve" text-anchor="start" x="34" y="-370.61" font-family="Helvetica,sans-Serif" font-weight="bold" font-size="11.00" fill="#37474f">R2</text>
<text xml:space="preserve" text-anchor="start" x="34" y="-355.61" font-family="Helvetica,sans-Serif" font-size="11.00" fill="#37474f">n2 → n4</text>
<text xml:space="preserve" text-anchor="start" x="34" y="-339.36" font-family="Helvetica,sans-Serif" font-size="11.00" fill="#37474f">n4 → n6</text>
</g>
<g id="clust5" class="cluster">
<title>cluster_R4</title>
<path fill="#fbe9e7" stroke="#ff8a65" stroke-width="1.2" d="M126,-279.06C126,-279.06 441,-279.06 441,-279.06 447,-279.06 453,-285.06 453,-291.06 453,-291.06 453,-566.06 453,-566.06 453,-572.06 447,-578.06 441,-578.06 441,-578.06 126,-578.06 126,-578.06 120,-578.06 114,-572.06 114,-566.06 114,-566.06 114,-291.06 114,-291.06 114,-285.06 120,-279.06 126,-279.06"/>
<text xml:space="preserve" text-anchor="start" x="124" y="-562.61" font-family="Helvetica,sans-Serif" font-weight="bold" font-size="11.00" fill="#37474f">R4</text>
<text xml:space="preserve" text-anchor="start" x="124" y="-547.61" font-family="Helvetica,sans-Serif" font-size="11.00" fill="#37474f">n4 → n6</text>
<text xml:space="preserve" text-anchor="start" x="124" y="-531.36" font-family="Helvetica,sans-Serif" font-size="11.00" fill="#37474f">n12 → n14</text>
</g>
<g id="clust6" class="cluster">
<title>cluster_R3</title>
<path fill="#e0f7fa" stroke="#4dd0e1" stroke-width="1.2" d="M249.13,-287.06C249.13,-287.06 295.13,-287.06 295.13,-287.06 301.13,-287.06 307.13,-293.06 307.13,-299.06 307.13,-299.06 307.13,-384.06 307.13,-384.06 307.13,-390.06 301.13,-396.06 295.13,-396.06 295.13,-396.06 249.13,-396.06 249.13,-396.06 243.13,-396.06 237.13,-390.06 237.13,-384.06 237.13,-384.06 237.13,-299.06 237.13,-299.06 237.13,-293.06 243.13,-287.06 249.13,-287.06"/>
<text xml:space="preserve" text-anchor="start" x="247.13" y="-380.61" font-family="Helvetica,sans-Serif" font-weight="bold" font-size="11.00" fill="#37474f">R3</text>
<text xml:space="preserve" text-anchor="start" x="247.13" y="-365.61" font-family="Helvetica,sans-Serif" font-size="11.00" fill="#37474f">n6 → n9</text>
<text xml:space="preserve" text-anchor="start" x="247.13" y="-349.36" font-family="Helvetica,sans-Serif" font-size="11.00" fill="#37474f">n9 → n12</text>
</g>
<g id="clust7" class="cluster">
<title>cluster_R8</title>
<path fill="#e0f7fa" stroke="#4dd0e1" stroke-width="1.2" d="M248,-404.06C248,-404.06 297.25,-404.06 297.25,-404.06 303.25,-404.06 309.25,-410.06 309.25,-416.06 309.25,-416.06 309.25,-501.06 309.25,-501.06 309.25,-507.06 303.25,-513.06 297.25,-513.06 297.25,-513.06 248,-513.06 248,-513.06 242,-513.06 236,-507.06 236,-501.06 236,-501.06 236,-416.06 236,-416.06 236,-410.06 242,-404.06 248,-404.06"/>
<text xml:space="preserve" text-anchor="start" x="246" y="-497.61" font-family="Helvetica,sans-Serif" font-weight="bold" font-size="11.00" fill="#37474f">R8</text>
<text xml:space="preserve" text-anchor="start" x="246" y="-482.61" font-family="Helvetica,sans-Serif" font-size="11.00" fill="#37474f">n6 → n10</text>
<text xml:space="preserve" text-anchor="start" x="246" y="-466.36" font-family="Helvetica,sans-Serif" font-size="11.00" fill="#37474f">n10 → n12</text>
</g>
<g id="clust8" class="cluster">
<title>cluster_R9</title>
<path fill="#fff8e1" stroke="#ffb74d" stroke-width="1.2" d="M597.75,-143.06C597.75,-143.06 643.75,-143.06 643.75,-143.06 649.75,-143.06 655.75,-149.06 655.75,-155.06 655.75,-155.06 655.75,-240.06 655.75,-240.06 655.75,-246.06 649.75,-252.06 643.75,-252.06 643.75,-252.06 597.75,-252.06 597.75,-252.06 591.75,-252.06 585.75,-246.06 585.75,-240.06 585.75,-240.06 585.75,-155.06 585.75,-155.06 585.75,-149.06 591.75,-143.06 597.75,-143.06"/>
<text xml:space="preserve" text-anchor="start" x="595.75" y="-236.61" font-family="Helvetica,sans-Serif" font-weight="bold" font-size="11.00" fill="#37474f">R9</text>
<text xml:space="preserve" text-anchor="start" x="595.75" y="-221.61" font-family="Helvetica,sans-Serif" font-size="11.00" fill="#37474f">n1 → n3</text>
<text xml:space="preserve" text-anchor="start" x="595.75" y="-205.36" font-family="Helvetica,sans-Serif" font-size="11.00" fill="#37474f">n3 → n5</text>
</g>
<g id="clust9" class="cluster">
<title>cluster_R11</title>
<path fill="#fff8e1" stroke="#ffb74d" stroke-width="1.2" d="M687.75,-143.06C687.75,-143.06 1102.88,-143.06 1102.88,-143.06 1108.88,-143.06 1114.88,-149.06 1114.88,-155.06 1114.88,-155.06 1114.88,-323.06 1114.88,-323.06 1114.88,-329.06 1108.88,-335.06 1102.88,-335.06 1102.88,-335.06 687.75,-335.06 687.75,-335.06 681.75,-335.06 675.75,-329.06 675.75,-323.06 675.75,-323.06 675.75,-155.06 675.75,-155.06 675.75,-149.06 681.75,-143.06 687.75,-143.06"/>
<text xml:space="preserve" text-anchor="start" x="685.75" y="-319.61" font-family="Helvetica,sans-Serif" font-weight="bold" font-size="11.00" fill="#37474f">R11</text>
<text xml:space="preserve" text-anchor="start" x="685.75" y="-304.61" font-family="Helvetica,sans-Serif" font-size="11.00" fill="#37474f">n3 → n5</text>
<text xml:space="preserve" text-anchor="start" x="685.75" y="-288.36" font-family="Helvetica,sans-Serif" font-size="11.00" fill="#37474f">n13 → n15</text>
</g>
<g id="clust10" class="cluster">
<title>cluster_R10</title>
<path fill="#fbe9e7" stroke="#ff8a65" stroke-width="1.2" d="M777.75,-151.06C777.75,-151.06 823.75,-151.06 823.75,-151.06 829.75,-151.06 835.75,-157.06 835.75,-163.06 835.75,-163.06 835.75,-248.06 835.75,-248.06 835.75,-254.06 829.75,-260.06 823.75,-260.06 823.75,-260.06 777.75,-260.06 777.75,-260.06 771.75,-260.06 765.75,-254.06 765.75,-248.06 765.75,-248.06 765.75,-163.06 765.75,-163.06 765.75,-157.06 771.75,-151.06 777.75,-151.06"/>
<text xml:space="preserve" text-anchor="start" x="775.75" y="-244.61" font-family="Helvetica,sans-Serif" font-weight="bold" font-size="11.00" fill="#37474f">R10</text>
<text xml:space="preserve" text-anchor="start" x="775.75" y="-229.61" font-family="Helvetica,sans-Serif" font-size="11.00" fill="#37474f">n5 → n7</text>
<text xml:space="preserve" text-anchor="start" x="775.75" y="-213.36" font-family="Helvetica,sans-Serif" font-size="11.00" fill="#37474f">n7 → n11</text>
</g>
<g id="clust11" class="cluster">
<title>cluster_R12</title>
<path fill="#fff8e1" stroke="#ffb74d" stroke-width="1.2" d="M1055.75,-343.06C1055.75,-343.06 1105,-343.06 1105,-343.06 1111,-343.06 1117,-349.06 1117,-355.06 1117,-355.06 1117,-440.06 1117,-440.06 1117,-446.06 1111,-452.06 1105,-452.06 1105,-452.06 1055.75,-452.06 1055.75,-452.06 1049.75,-452.06 1043.75,-446.06 1043.75,-440.06 1043.75,-440.06 1043.75,-355.06 1043.75,-355.06 1043.75,-349.06 1049.75,-343.06 1055.75,-343.06"/>
<text xml:space="preserve" text-anchor="start" x="1053.75" y="-436.61" font-family="Helvetica,sans-Serif" font-weight="bold" font-size="11.00" fill="#37474f">R12</text>
<text xml:space="preserve" text-anchor="start" x="1053.75" y="-421.61" font-family="Helvetica,sans-Serif" font-size="11.00" fill="#37474f">n13 → n15</text>
<text xml:space="preserve" text-anchor="start" x="1053.75" y="-405.36" font-family="Helvetica,sans-Serif" font-size="11.00" fill="#37474f">n15 → n16</text>
</g>
<g id="clust12" class="cluster">
<title>cluster_R7</title>
<path fill="#e8f5e9" stroke="#81c784" stroke-width="1.2" d="M1247,-389.06C1247,-389.06 1327,-389.06 1327,-389.06 1333,-389.06 1339,-395.06 1339,-401.06 1339,-401.06 1339,-486.06 1339,-486.06 1339,-492.06 1333,-498.06 1327,-498.06 1327,-498.06 1247,-498.06 1247,-498.06 1241,-498.06 1235,-492.06 1235,-486.06 1235,-486.06 1235,-401.06 1235,-401.06 1235,-395.06 1241,-389.06 1247,-389.06"/>
<text xml:space="preserve" text-anchor="start" x="1245" y="-482.61" font-family="Helvetica,sans-Serif" font-weight="bold" font-size="11.00" fill="#37474f">R7</text>
<text xml:space="preserve" text-anchor="start" x="1245" y="-467.61" font-family="Helvetica,sans-Serif" font-size="11.00" fill="#37474f">n16 → end</text>
<text xml:space="preserve" text-anchor="start" x="1245" y="-451.36" font-family="Helvetica,sans-Serif" font-size="11.00" fill="#37474f">end → Super exit</text>
</g>
<!-- start -->
<g id="node1" class="node">
<title>start</title>
<ellipse fill="white" stroke="#455a64" stroke-width="1.1" cx="418" cy="-44.06" rx="27" ry="18"/>
<text xml:space="preserve" text-anchor="middle" x="418" y="-39.61" font-family="Helvetica,sans-Serif" font-size="11.00">start</text>
</g>
<!-- n1 -->
<g id="node16" class="node">
<title>n1</title>
<ellipse fill="white" stroke="#455a64" stroke-width="1.1" cx="530.75" cy="-169.06" rx="27" ry="18"/>
<text xml:space="preserve" text-anchor="middle" x="530.75" y="-164.61" font-family="Helvetica,sans-Serif" font-size="11.00">n1</text>
</g>
<!-- start&#45;&gt;n1 -->
<g id="edge1" class="edge">
<title>start&#45;&gt;n1</title>
<path fill="none" stroke="#546e7a" stroke-width="1.1" d="M432.8,-59.64C452.39,-81.74 488.33,-122.31 510.52,-147.36"/>
<polygon fill="#546e7a" stroke="#546e7a" stroke-width="1.1" points="508.54,-148.81 515.02,-152.43 512.21,-145.57 508.54,-148.81"/>
</g>
<!-- n4 -->
<g id="node2" class="node">
<title>n4</title>
<ellipse fill="white" stroke="#455a64" stroke-width="1.1" cx="59" cy="-303.06" rx="27" ry="18"/>
<text xml:space="preserve" text-anchor="middle" x="59" y="-298.61" font-family="Helvetica,sans-Serif" font-size="11.00">n4</text>
</g>
<!-- n6 -->
<g id="node6" class="node">
<title>n6</title>
<ellipse fill="white" stroke="#455a64" stroke-width="1.1" cx="149" cy="-313.06" rx="27" ry="18"/>
<text xml:space="preserve" text-anchor="middle" x="149" y="-308.61" font-family="Helvetica,sans-Serif" font-size="11.00">n6</text>
</g>
<!-- n4&#45;&gt;n6 -->
<g id="edge6" class="edge">
<title>n4&#45;&gt;n6</title>
<path fill="none" stroke="#546e7a" stroke-width="1.1" d="M85.93,-306C94.53,-306.98 104.26,-308.09 113.41,-309.13"/>
<polygon fill="#546e7a" stroke="#546e7a" stroke-width="1.1" points="113.07,-311.55 120.3,-309.91 113.62,-306.69 113.07,-311.55"/>
</g>
<!-- n9 -->
<g id="node3" class="node">
<title>n9</title>
<ellipse fill="white" stroke="#455a64" stroke-width="1.1" cx="272.13" cy="-313.06" rx="27" ry="18"/>
<text xml:space="preserve" text-anchor="middle" x="272.13" y="-308.61" font-family="Helvetica,sans-Serif" font-size="11.00">n9</text>
</g>
<!-- n12 -->
<g id="node5" class="node">
<title>n12</title>
<ellipse fill="white" stroke="#455a64" stroke-width="1.1" cx="418" cy="-371.06" rx="27" ry="18"/>
<text xml:space="preserve" text-anchor="middle" x="418" y="-366.61" font-family="Helvetica,sans-Serif" font-size="11.00">n12</text>
</g>
<!-- n9&#45;&gt;n12 -->
<g id="edge13" class="edge">
<title>n9&#45;&gt;n12</title>
<path fill="none" stroke="#546e7a" stroke-width="1.1" d="M295.55,-322.31C313.34,-329.62 338.86,-340.07 361.25,-349.06 369.36,-352.31 378.15,-355.8 386.3,-359.02"/>
<polygon fill="#546e7a" stroke="#546e7a" stroke-width="1.1" points="385.23,-361.23 392.64,-361.52 387.03,-356.67 385.23,-361.23"/>
</g>
<!-- n10 -->
<g id="node4" class="node">
<title>n10</title>
<ellipse fill="white" stroke="#455a64" stroke-width="1.1" cx="272.13" cy="-430.06" rx="27" ry="18"/>
<text xml:space="preserve" text-anchor="middle" x="272.13" y="-425.61" font-family="Helvetica,sans-Serif" font-size="11.00">n10</text>
</g>
<!-- n10&#45;&gt;n12 -->
<g id="edge14" class="edge">
<title>n10&#45;&gt;n12</title>
<path fill="none" stroke="#546e7a" stroke-width="1.1" d="M295.61,-420.84C320.21,-410.75 359.76,-394.53 387,-383.36"/>
<polygon fill="#546e7a" stroke="#546e7a" stroke-width="1.1" points="387.59,-385.77 393.14,-380.84 385.73,-381.23 387.59,-385.77"/>
</g>
<!-- n14 -->
<g id="node7" class="node">
<title>n14</title>
<ellipse fill="white" stroke="#455a64" stroke-width="1.1" cx="530.75" cy="-371.06" rx="27" ry="18"/>
<text xml:space="preserve" text-anchor="middle" x="530.75" y="-366.61" font-family="Helvetica,sans-Serif" font-size="11.00">n14</text>
</g>
<!-- n12&#45;&gt;n14 -->
<g id="edge16" class="edge">
<title>n12&#45;&gt;n14</title>
<path fill="none" stroke="#546e7a" stroke-width="1.1" d="M445.53,-371.06C460.32,-371.06 478.93,-371.06 494.89,-371.06"/>
<polygon fill="#546e7a" stroke="#546e7a" stroke-width="1.1" points="494.77,-373.51 501.77,-371.06 494.77,-368.61 494.77,-373.51"/>
</g>
<!-- n6&#45;&gt;n9 -->
<g id="edge9" class="edge">
<title>n6&#45;&gt;n9</title>
<path fill="none" stroke="#546e7a" stroke-width="1.1" d="M176.28,-313.06C193.9,-313.06 217.29,-313.06 236.43,-313.06"/>
<polygon fill="#546e7a" stroke="#546e7a" stroke-width="1.1" points="236.23,-315.51 243.23,-313.06 236.23,-310.61 236.23,-315.51"/>
</g>
<!-- n6&#45;&gt;n10 -->
<g id="edge10" class="edge">
<title>n6&#45;&gt;n10</title>
<path fill="none" stroke="#546e7a" stroke-width="1.1" d="M162.08,-329.36C176.5,-348.19 201.96,-379.45 228.07,-402.06 232.89,-406.23 238.37,-410.26 243.78,-413.89"/>
<polygon fill="#546e7a" stroke="#546e7a" stroke-width="1.1" points="242.42,-415.93 249.63,-417.68 245.08,-411.82 242.42,-415.93"/>
</g>
<!-- n2 -->
<g id="node8" class="node">
<title>n2</title>
<ellipse fill="white" stroke="#455a64" stroke-width="1.1" cx="620.75" cy="-286.06" rx="27" ry="18"/>
<text xml:space="preserve" text-anchor="middle" x="620.75" y="-281.61" font-family="Helvetica,sans-Serif" font-size="11.00">n2</text>
</g>
<!-- n14&#45;&gt;n2 -->
<g id="edge19" class="edge">
<title>n14&#45;&gt;n2</title>
<path fill="none" stroke="#546e7a" stroke-width="1.1" d="M543.49,-354.91C553.74,-341.46 569.48,-322.28 585.75,-308.06 588,-306.09 590.44,-304.17 592.94,-302.34"/>
<polygon fill="#546e7a" stroke="#546e7a" stroke-width="1.1" points="593.91,-304.65 598.27,-298.65 591.12,-300.62 593.91,-304.65"/>
</g>
<!-- n16 -->
<g id="node17" class="node">
<title>n16</title>
<ellipse fill="white" stroke="#455a64" stroke-width="1.1" cx="1180" cy="-415.06" rx="27" ry="18"/>
<text xml:space="preserve" text-anchor="middle" x="1180" y="-410.61" font-family="Helvetica,sans-Serif" font-size="11.00">n16</text>
</g>
<!-- n14&#45;&gt;n16 -->
<g id="edge20" class="edge">
<title>n14&#45;&gt;n16</title>
<path fill="none" stroke="#546e7a" stroke-width="1.1" d="M547.56,-385.52C577.08,-410.96 643.61,-461.06 709.75,-461.06 709.75,-461.06 709.75,-461.06 981.75,-461.06 1041.9,-461.06 1059.73,-474.44 1117,-456.06 1131.01,-451.56 1144.84,-442.94 1155.87,-434.75"/>
<polygon fill="#546e7a" stroke="#546e7a" stroke-width="1.1" points="1157.33,-436.72 1161.37,-430.5 1154.33,-432.84 1157.33,-436.72"/>
</g>
<!-- n2&#45;&gt;n4 -->
<g id="edge4" class="edge">
<title>n2&#45;&gt;n4</title>
<path fill="none" stroke="#546e7a" stroke-width="1.1" d="M593.82,-282.45C555.63,-277.46 481.96,-269.06 419,-269.06 271.13,-269.06 271.13,-269.06 271.13,-269.06 201.26,-269.06 181.48,-255.94 114,-274.06 104.4,-276.64 94.62,-281.19 86.06,-285.94"/>
<polygon fill="#546e7a" stroke="#546e7a" stroke-width="1.1" points="84.84,-283.82 80.03,-289.47 87.31,-288.05 84.84,-283.82"/>
</g>
<!-- n3 -->
<g id="node9" class="node">
<title>n3</title>
<ellipse fill="white" stroke="#455a64" stroke-width="1.1" cx="620.75" cy="-169.06" rx="27" ry="18"/>
<text xml:space="preserve" text-anchor="middle" x="620.75" y="-164.61" font-family="Helvetica,sans-Serif" font-size="11.00">n3</text>
</g>
<!-- n5 -->
<g id="node13" class="node">
<title>n5</title>
<ellipse fill="white" stroke="#455a64" stroke-width="1.1" cx="710.75" cy="-177.06" rx="27" ry="18"/>
<text xml:space="preserve" text-anchor="middle" x="710.75" y="-172.61" font-family="Helvetica,sans-Serif" font-size="11.00">n5</text>
</g>
<!-- n3&#45;&gt;n5 -->
<g id="edge5" class="edge">
<title>n3&#45;&gt;n5</title>
<path fill="none" stroke="#546e7a" stroke-width="1.1" d="M647.68,-171.41C656.28,-172.2 666.01,-173.08 675.16,-173.91"/>
<polygon fill="#546e7a" stroke="#546e7a" stroke-width="1.1" points="674.85,-176.35 682.05,-174.54 675.3,-171.47 674.85,-176.35"/>
</g>
<!-- n7 -->
<g id="node10" class="node">
<title>n7</title>
<ellipse fill="white" stroke="#455a64" stroke-width="1.1" cx="800.75" cy="-177.06" rx="27" ry="18"/>
<text xml:space="preserve" text-anchor="middle" x="800.75" y="-172.61" font-family="Helvetica,sans-Serif" font-size="11.00">n7</text>
</g>
<!-- n11 -->
<g id="node11" class="node">
<title>n11</title>
<ellipse fill="white" stroke="#455a64" stroke-width="1.1" cx="890.75" cy="-181.06" rx="27" ry="18"/>
<text xml:space="preserve" text-anchor="middle" x="890.75" y="-176.61" font-family="Helvetica,sans-Serif" font-size="11.00">n11</text>
</g>
<!-- n7&#45;&gt;n11 -->
<g id="edge11" class="edge">
<title>n7&#45;&gt;n11</title>
<path fill="none" stroke="#546e7a" stroke-width="1.1" d="M828.15,-178.26C836.51,-178.64 845.87,-179.06 854.73,-179.47"/>
<polygon fill="#546e7a" stroke="#546e7a" stroke-width="1.1" points="854.6,-181.91 861.7,-179.78 854.82,-177.02 854.6,-181.91"/>
</g>
<!-- n13 -->
<g id="node12" class="node">
<title>n13</title>
<ellipse fill="white" stroke="#455a64" stroke-width="1.1" cx="980.75" cy="-225.06" rx="27" ry="18"/>
<text xml:space="preserve" text-anchor="middle" x="980.75" y="-220.61" font-family="Helvetica,sans-Serif" font-size="11.00">n13</text>
</g>
<!-- n11&#45;&gt;n13 -->
<g id="edge15" class="edge">
<title>n11&#45;&gt;n13</title>
<path fill="none" stroke="#546e7a" stroke-width="1.1" d="M913.05,-191.71C924.43,-197.4 938.59,-204.48 950.93,-210.65"/>
<polygon fill="#546e7a" stroke="#546e7a" stroke-width="1.1" points="949.49,-212.67 956.85,-213.61 951.68,-208.29 949.49,-212.67"/>
</g>
<!-- n8 -->
<g id="node14" class="node">
<title>n8</title>
<ellipse fill="white" stroke="#455a64" stroke-width="1.1" cx="1079.88" cy="-225.06" rx="27" ry="18"/>
<text xml:space="preserve" text-anchor="middle" x="1079.88" y="-220.61" font-family="Helvetica,sans-Serif" font-size="11.00">n8</text>
</g>
<!-- n13&#45;&gt;n8 -->
<g id="edge17" class="edge">
<title>n13&#45;&gt;n8</title>
<path fill="none" stroke="#546e7a" stroke-width="1.1" d="M1008.29,-225.06C1019.32,-225.06 1032.27,-225.06 1044.04,-225.06"/>
<polygon fill="#546e7a" stroke="#546e7a" stroke-width="1.1" points="1043.7,-227.51 1050.7,-225.06 1043.7,-222.61 1043.7,-227.51"/>
</g>
<!-- n15 -->
<g id="node15" class="node">
<title>n15</title>
<ellipse fill="white" stroke="#455a64" stroke-width="1.1" cx="1079.88" cy="-369.06" rx="27" ry="18"/>
<text xml:space="preserve" text-anchor="middle" x="1079.88" y="-364.61" font-family="Helvetica,sans-Serif" font-size="11.00">n15</text>
</g>
<!-- n13&#45;&gt;n15 -->
<g id="edge18" class="edge">
<title>n13&#45;&gt;n15</title>
<path fill="none" stroke="#546e7a" stroke-width="1.1" d="M999.72,-238.17C1002.67,-240.87 1005.49,-243.88 1007.75,-247.06 1033.64,-283.54 1017.33,-304.96 1043.75,-341.06 1046.46,-344.75 1049.77,-348.23 1053.27,-351.39"/>
<polygon fill="#546e7a" stroke="#546e7a" stroke-width="1.1" points="1051.45,-353.06 1058.4,-355.65 1054.58,-349.3 1051.45,-353.06"/>
</g>
<!-- n5&#45;&gt;n7 -->
<g id="edge7" class="edge">
<title>n5&#45;&gt;n7</title>
<path fill="none" stroke="#546e7a" stroke-width="1.1" d="M738.15,-177.06C746.51,-177.06 755.87,-177.06 764.73,-177.06"/>
<polygon fill="#546e7a" stroke="#546e7a" stroke-width="1.1" points="764.7,-179.51 771.7,-177.06 764.7,-174.61 764.7,-179.51"/>
</g>
<!-- n5&#45;&gt;n8 -->
<g id="edge8" class="edge">
<title>n5&#45;&gt;n8</title>
<path fill="none" stroke="#546e7a" stroke-width="1.1" d="M729.62,-190.24C732.57,-192.94 735.43,-195.92 737.75,-199.06 756.48,-224.33 739.47,-246.77 765.75,-264.06 776.88,-271.38 956.41,-268.01 1007.75,-256.06 1022.53,-252.62 1038.07,-246.2 1050.84,-240.1"/>
<polygon fill="#546e7a" stroke="#546e7a" stroke-width="1.1" points="1051.72,-242.4 1056.91,-237.1 1049.55,-238 1051.72,-242.4"/>
</g>
<!-- n8&#45;&gt;n11 -->
<g id="edge12" class="edge">
<title>n8&#45;&gt;n11</title>
<path fill="none" stroke="#546e7a" stroke-width="1.1" d="M1057.64,-214.25C1043.78,-207.67 1025.11,-199.67 1007.75,-195.06 980.98,-187.95 949.76,-184.44 926.46,-182.71"/>
<polygon fill="#546e7a" stroke="#546e7a" stroke-width="1.1" points="926.75,-180.28 919.6,-182.25 926.42,-185.17 926.75,-180.28"/>
</g>
<!-- n15&#45;&gt;n16 -->
<g id="edge21" class="edge">
<title>n15&#45;&gt;n16</title>
<path fill="none" stroke="#546e7a" stroke-width="1.1" d="M1102.65,-379.27C1116.5,-385.76 1134.6,-394.24 1149.7,-401.32"/>
<polygon fill="#546e7a" stroke="#546e7a" stroke-width="1.1" points="1148.4,-403.42 1155.78,-404.17 1150.48,-398.98 1148.4,-403.42"/>
</g>
<!-- n1&#45;&gt;n2 -->
<g id="edge2" class="edge">
<title>n1&#45;&gt;n2</title>
<path fill="none" stroke="#546e7a" stroke-width="1.1" d="M539.97,-186.25C549.44,-205.06 566.23,-235.51 585.75,-258.06 588.56,-261.3 591.76,-264.46 595.06,-267.43"/>
<polygon fill="#546e7a" stroke="#546e7a" stroke-width="1.1" points="593.25,-269.1 600.17,-271.78 596.43,-265.37 593.25,-269.1"/>
</g>
<!-- n1&#45;&gt;n3 -->
<g id="edge3" class="edge">
<title>n1&#45;&gt;n3</title>
<path fill="none" stroke="#546e7a" stroke-width="1.1" d="M558.15,-169.06C566.51,-169.06 575.87,-169.06 584.73,-169.06"/>
<polygon fill="#546e7a" stroke="#546e7a" stroke-width="1.1" points="584.7,-171.51 591.7,-169.06 584.7,-166.61 584.7,-171.51"/>
</g>
<!-- end -->
<g id="node18" class="node">
<title>end</title>
<ellipse fill="white" stroke="#455a64" stroke-width="1.1" cx="1286.5" cy="-415.06" rx="27" ry="18"/>
<text xml:space="preserve" text-anchor="middle" x="1286.5" y="-410.61" font-family="Helvetica,sans-Serif" font-size="11.00">end</text>
</g>
<!-- n16&#45;&gt;end -->
<g id="edge22" class="edge">
<title>n16&#45;&gt;end</title>
<path fill="none" stroke="#546e7a" stroke-width="1.1" d="M1207.37,-415.06C1220.49,-415.06 1236.52,-415.06 1250.64,-415.06"/>
<polygon fill="#546e7a" stroke="#546e7a" stroke-width="1.1" points="1250.47,-417.51 1257.47,-415.06 1250.47,-412.61 1250.47,-417.51"/>
</g>
<!-- __super_exit__ -->
<g id="node20" class="node">
<title>__super_exit__</title>
<ellipse fill="#eceff1" stroke="#607d8b" stroke-width="1.4" cx="1406.62" cy="-415.06" rx="35.62" ry="35.62"/>
<ellipse fill="none" stroke="#607d8b" stroke-width="1.4" cx="1406.62" cy="-415.06" rx="39.62" ry="39.62"/>
<text xml:space="preserve" text-anchor="middle" x="1406.62" y="-410.61" font-family="Helvetica,sans-Serif" font-size="11.00">Super exit</text>
</g>
<!-- end&#45;&gt;__super_exit__ -->
<g id="edge24" class="edge">
<title>end&#45;&gt;__super_exit__</title>
<path fill="none" stroke="#78909c" stroke-width="1.1" stroke-dasharray="5,2" d="M1314.01,-415.06C1327.1,-415.06 1343.28,-415.06 1358.39,-415.06"/>
<polygon fill="#78909c" stroke="#78909c" stroke-width="1.1" points="1357.98,-417.51 1364.98,-415.06 1357.98,-412.61 1357.98,-417.51"/>
</g>
<!-- __super_entry__ -->
<g id="node19" class="node">
<title>__super_entry__</title>
<ellipse fill="#eceff1" stroke="#607d8b" stroke-width="1.4" cx="272.13" cy="-44.06" rx="40.06" ry="40.06"/>
<ellipse fill="none" stroke="#607d8b" stroke-width="1.4" cx="272.13" cy="-44.06" rx="44.06" ry="44.06"/>
<text xml:space="preserve" text-anchor="middle" x="272.13" y="-39.61" font-family="Helvetica,sans-Serif" font-size="11.00">Super entry</text>
</g>
<!-- __super_entry__&#45;&gt;start -->
<g id="edge23" class="edge">
<title>__super_entry__&#45;&gt;start</title>
<path fill="none" stroke="#78909c" stroke-width="1.1" stroke-dasharray="5,2" d="M316.68,-44.06C337.63,-44.06 362.39,-44.06 382.07,-44.06"/>
<polygon fill="#78909c" stroke="#78909c" stroke-width="1.1" points="382.06,-46.51 389.06,-44.06 382.06,-41.61 382.06,-46.51"/>
</g>
</g>
</svg>
