<?xml version="1.0" encoding="UTF-8" standalone="no"?>
<!DOCTYPE svg PUBLIC "-//W3C//DTD SVG 1.1//EN"
 "http://www.w3.org/Graphics/SVG/1.1/DTD/svg11.dtd">
<!-- Generated by graphviz version 14.1.1 (20251213.1925)
 -->
<!-- Title: CFG Pages: 1 -->
<svg width="812pt" height="344pt"
 viewBox="0.00 0.00 812.00 344.00" xmlns="http://www.w3.org/2000/svg" xmlns:xlink="http://www.w3.org/1999/xlink">
<g id="graph0" class="graph" transform="scale(1 1) rotate(0) translate(14.4 329.4)">
<title>CFG</title>
<g id="clust1" class="cluster">
<title>cluster_R1</title>
<path fill="#e8f5e9" stroke="#81c784" stroke-width="1.2" d="M140.87,-74C140.87,-74 217.87,-74 217.87,-74 223.87,-74 229.87,-80 229.87,-86 229.87,-86 229.87,-171 229.87,-171 229.87,-177 223.87,-183 217.87,-183 217.87,-183 140.87,-183 140.87,-183 134.87,-183 128.87,-177 128.87,-171 128.87,-171 128.87,-86 128.87,-86 128.87,-80 134.87,-74 140.87,-74"/>
<text xml:space="preserve" text-anchor="start" x="138.87" y="-167.55" font-family="Helvetica,sans-Serif" font-weight="bold" font-size="11.00" fill="#37474f">R1</text>
<text xml:space="preserve" text-anchor="start" x="138.87" y="-152.55" font-family="Helvetica,sans-Serif" font-size="11.00" fill="#37474f">Super entry → S</text>
<text xml:space="preserve" text-anchor="start" x="138.87" y="-136.3" font-family="Helvetica,sans-Serif" font-size="11.00" fill="#37474f">S → A</text>
</g>
<g id="clust2" class="cluster">
<title>cluster_R3</title>
<path fill="#e8f5e9" stroke="#81c784" stroke-width="1.2" d="M274.62,-8C274.62,-8 526.12,-8 526.12,-8 532.12,-8 538.12,-14 538.12,-20 538.12,-20 538.12,-295 538.12,-295 538.12,-301 532.12,-307 526.12,-307 526.12,-307 274.62,-307 274.62,-307 268.62,-307 262.62,-301 262.62,-295 262.62,-295 262.62,-20 262.62,-20 262.62,-14 268.62,-8 274.62,-8"/>
<text xml:space="preserve" text-anchor="start" x="272.62" y="-291.55" font-family="Helvetica,sans-Serif" font-weight="bold" font-size="11.00" fill="#37474f">R3</text>
<text xml:space="preserve" text-anchor="start" x="272.62" y="-276.55" font-family="Helvetica,sans-Serif" font-size="11.00" fill="#37474f">S → A</text>
<text xml:space="preserve" text-anchor="start" x="272.62" y="-260.3" font-family="Helvetica,sans-Serif" font-size="11.00" fill="#37474f">D → T</text>
</g>
<g id="clust3" class="cluster">
<title>cluster_R2</title>
<path fill="#fff8e1" stroke="#ffb74d" stroke-width="1.2" d="M377.37,-16C377.37,-16 423.37,-16 423.37,-16 429.37,-16 435.37,-22 435.37,-28 435.37,-28 435.37,-113 435.37,-113 435.37,-119 429.37,-125 423.37,-125 423.37,-125 377.37,-125 377.37,-125 371.37,-125 365.37,-119 365.37,-113 365.37,-113 365.37,-28 365.37,-28 365.37,-22 371.37,-16 377.37,-16"/>
<text xml:space="preserve" text-anchor="start" x="375.37" y="-109.55" font-family="Helvetica,sans-Serif" font-weight="bold" font-size="11.00" fill="#37474f">R2</text>
<text xml:space="preserve" text-anchor="start" x="375.37" y="-94.55" font-family="Helvetica,sans-Serif" font-size="11.00" fill="#37474f">A → B</text>
<text xml:space="preserve" text-anchor="start" x="375.37" y="-78.3" font-family="Helvetica,sans-Serif" font-size="11.00" fill="#37474f">B → D</text>
</g>
<g id="clust4" class="cluster">
<title>cluster_R5</title>
<path fill="#fff8e1" stroke="#ffb74d" stroke-width="1.2" d="M377.37,-133C377.37,-133 423.37,-133 423.37,-133 429.37,-133 435.37,-139 435.37,-145 435.37,-145 435.37,-230 435.37,-230 435.37,-236 429.37,-242 423.37,-242 423.37,-242 377.37,-242 377.37,-242 371.37,-242 365.37,-236 365.37,-230 365.37,-230 365.37,-145 365.37,-145 365.37,-139 371.37,-133 377.37,-133"/>
<text xml:space="preserve" text-anchor="start" x="375.37" y="-226.55" font-family="Helvetica,sans-Serif" font-weight="bold" font-size="11.00" fill="#37474f">R5</text>
<text xml:space="preserve" text-anchor="start" x="375.37" y="-211.55" font-family="Helvetica,sans-Serif" font-size="11.00" fill="#37474f">A → C</text>
<text xml:space="preserve" text-anchor="start" x="375.37" y="-195.3" font-family="Helvetica,sans-Serif" font-size="11.00" fill="#37474f">C → D</text>
</g>
<g id="clust5" class="cluster">
<title>cluster_R4</title>
<path fill="#e8f5e9" stroke="#81c784" stroke-width="1.2" d="M582.87,-74C582.87,-74 651.62,-74 651.62,-74 657.62,-74 663.62,-80 663.62,-86 663.62,-86 663.62,-171 663.62,-171 663.62,-177 657.62,-183 651.62,-183 651.62,-183 582.87,-183 582.87,-183 576.87,-183 570.87,-177 570.87,-171 570.87,-171 570.87,-86 570.87,-86 570.87,-80 576.87,-74 582.87,-74"/>
<text xml:space="preserve" text-anchor="start" x="580.87" y="-167.55" font-family="Helvetica,sans-Serif" font-weight="bold" font-size="11.00" fill="#37474f">R4</text>
<text xml:space="preserve" text-anchor="start" x="580.87" y="-152.55" font-family="Helvetica,sans-Serif" font-size="11.00" fill="#37474f">D → T</text>
<text xml:space="preserve" text-anchor="start" x="580.87" y="-136.3" font-family="Helvetica,sans-Serif" font-size="11.00" fill="#37474f">T → Super exit</text>
</g>
<!-- S -->
<g id="node1" class="node">
<title>S</title>
<ellipse fill="white" stroke="#455a64" stroke-width="1.1" cx="178.87" cy="-100" rx="27" ry="18"/>
<text xml:space="preserve" text-anchor="middle" x="178.87" y="-95.55" font-family="Helvetica,sans-Serif" font-size="11.00">S</text>
</g>
<!-- A -->
<g id="node4" class="node">
<title>A</title>
<ellipse fill="white" stroke="#455a64" stroke-width="1.1" cx="297.62" cy="-100" rx="27" ry="18"/>
<text xml:space="preserve" text-anchor="middle" x="297.62" y="-95.55" font-family="Helvetica,sans-Serif" font-size="11.00">A</text>
</g>
<!-- S&#45;&gt;A -->
<g id="edge1" class="edge">
<title>S&#45;&gt;A</title>
<path fill="none" stroke="#546e7a" stroke-width="1.1" d="M206.36,-100C222.78,-100 244.05,-100 261.82,-100"/>
<polygon fill="#546e7a" stroke="#546e7a" stroke-width="1.1" points="261.56,-102.45 268.56,-100 261.56,-97.55 261.56,-102.45"/>
<text xml:space="preserve" text-anchor="middle" x="246.24" y="-101.2" font-family="Helvetica,sans-Serif" font-size="9.00" fill="#455a64">0:2</text>
</g>
<!-- B -->
<g id="node2" class="node">
<title>B</title>
<ellipse fill="white" stroke="#455a64" stroke-width="1.1" cx="400.37" cy="-42" rx="27" ry="18"/>
<text xml:space="preserve" text-anchor="middle" x="400.37" y="-37.55" font-family="Helvetica,sans-Serif" font-size="11.00">B</text>
</g>
<!-- D -->
<g id="node5" class="node">
<title>D</title>
<ellipse fill="white" stroke="#455a64" stroke-width="1.1" cx="503.12" cy="-100" rx="27" ry="18"/>
<text xml:space="preserve" text-anchor="middle" x="503.12" y="-95.55" font-family="Helvetica,sans-Serif" font-size="11.00">D</text>
</g>
<!-- B&#45;&gt;D -->
<g id="edge4" class="edge">
<title>B&#45;&gt;D</title>
<path fill="none" stroke="#546e7a" stroke-width="1.1" d="M421.27,-53.46C436.49,-62.22 457.65,-74.4 474.5,-84.1"/>
<polygon fill="#546e7a" stroke="#546e7a" stroke-width="1.1" points="473.18,-86.17 480.46,-87.54 475.62,-81.92 473.18,-86.17"/>
<text xml:space="preserve" text-anchor="middle" x="451.74" y="-75.67" font-family="Helvetica,sans-Serif" font-size="9.00" fill="#455a64">3:3</text>
</g>
<!-- C -->
<g id="node3" class="node">
<title>C</title>
<ellipse fill="white" stroke="#455a64" stroke-width="1.1" cx="400.37" cy="-159" rx="27" ry="18"/>
<text xml:space="preserve" text-anchor="middle" x="400.37" y="-154.55" font-family="Helvetica,sans-Serif" font-size="11.00">C</text>
</g>
<!-- C&#45;&gt;D -->
<g id="edge5" class="edge">
<title>C&#45;&gt;D</title>
<path fill="none" stroke="#546e7a" stroke-width="1.1" d="M421.27,-147.34C436.49,-138.43 457.65,-126.04 474.5,-116.17"/>
<polygon fill="#546e7a" stroke="#546e7a" stroke-width="1.1" points="475.67,-118.33 480.47,-112.68 473.19,-114.1 475.67,-118.33"/>
<text xml:space="preserve" text-anchor="middle" x="451.74" y="-134.23" font-family="Helvetica,sans-Serif" font-size="9.00" fill="#455a64">4:1</text>
</g>
<!-- A&#45;&gt;B -->
<g id="edge2" class="edge">
<title>A&#45;&gt;B</title>
<path fill="none" stroke="#546e7a" stroke-width="1.1" d="M318.52,-88.54C333.74,-79.78 354.9,-67.6 371.75,-57.9"/>
<polygon fill="#546e7a" stroke="#546e7a" stroke-width="1.1" points="372.87,-60.08 377.71,-54.46 370.43,-55.83 372.87,-60.08"/>
<text xml:space="preserve" text-anchor="middle" x="348.99" y="-75.67" font-family="Helvetica,sans-Serif" font-size="9.00" fill="#455a64">1:3</text>
</g>
<!-- A&#45;&gt;C -->
<g id="edge3" class="edge">
<title>A&#45;&gt;C</title>
<path fill="none" stroke="#546e7a" stroke-width="1.1" d="M318.52,-111.66C333.74,-120.57 354.9,-132.96 371.75,-142.83"/>
<polygon fill="#546e7a" stroke="#546e7a" stroke-width="1.1" points="370.44,-144.9 377.72,-146.32 372.92,-140.67 370.44,-144.9"/>
<text xml:space="preserve" text-anchor="middle" x="348.99" y="-134.23" font-family="Helvetica,sans-Serif" font-size="9.00" fill="#455a64">2:1</text>
</g>
<!-- T -->
<g id="node6" class="node">
<title>T</title>
<ellipse fill="white" stroke="#455a64" stroke-width="1.1" cx="616.74" cy="-100" rx="27" ry="18"/>
<text xml:space="preserve" text-anchor="middle" x="616.74" y="-95.55" font-family="Helvetica,sans-Serif" font-size="11.00">T</text>
</g>
<!-- D&#45;&gt;T -->
<g id="edge6" class="edge">
<title>D&#45;&gt;T</title>
<path fill="none" stroke="#546e7a" stroke-width="1.1" d="M530.57,-100C545.72,-100 564.91,-100 581.24,-100"/>
<polygon fill="#546e7a" stroke="#546e7a" stroke-width="1.1" points="580.81,-102.45 587.81,-100 580.81,-97.55 580.81,-102.45"/>
<text xml:space="preserve" text-anchor="middle" x="554.49" y="-101.2" font-family="Helvetica,sans-Serif" font-size="9.00" fill="#455a64">5:2</text>
</g>
<!-- __super_exit__ -->
<g id="node8" class="node">
<title>__super_exit__</title>
<ellipse fill="#eceff1" stroke="#607d8b" stroke-width="1.4" cx="743.99" cy="-100" rx="35.62" ry="35.62"/>
<ellipse fill="none" stroke="#607d8b" stroke-width="1.4" cx="743.99" cy="-100" rx="39.62" ry="39.62"/>
<text xml:space="preserve" text-anchor="middle" x="743.99" y="-95.55" font-family="Helvetica,sans-Serif" font-size="11.00">Super exit</text>
</g>
<!-- T&#45;&gt;__super_exit__ -->
<g id="edge8" class="edge">
<title>T&#45;&gt;__super_exit__</title>
<path fill="none" stroke="#78909c" stroke-width="1.1" stroke-dasharray="5,2" d="M644,-100C658.91,-100 678.05,-100 695.51,-100"/>
<polygon fill="#78909c" stroke="#78909c" stroke-width="1.1" points="695.25,-102.45 702.25,-100 695.25,-97.55 695.25,-102.45"/>
<text xml:space="preserve" text-anchor="middle" x="679.99" y="-101.2" font-family="Helvetica,sans-Serif" font-size="9.00" fill="#78909c">7:2</text>
</g>
<!-- __super_entry__ -->
<g id="node7" class="node">
<title>__super_entry__</title>
<ellipse fill="#eceff1" stroke="#607d8b" stroke-width="1.4" cx="44.06" cy="-100" rx="40.06" ry="40.06"/>
<ellipse fill="none" stroke="#607d8b" stroke-width="1.4" cx="44.06" cy="-100" rx="44.06" ry="44.06"/>
<text xml:space="preserve" text-anchor="middle" x="44.06" y="-95.55" font-family="Helvetica,sans-Serif" font-size="11.00">Super entry</text>
</g>
<!-- __super_entry__&#45;&gt;S -->
<g id="edge7" class="edge">
<title>__super_entry__&#45;&gt;S</title>
<path fill="none" stroke="#78909c" stroke-width="1.1" stroke-dasharray="5,2" d="M88.54,-100C106.19,-100 126.31,-100 142.97,-100"/>
<polygon fill="#78909c" stroke="#78909c" stroke-width="1.1" points="142.68,-102.45 149.68,-100 142.68,-97.55 142.68,-102.45"/>
<text xml:space="preserve" text-anchor="middle" x="112.49" y="-101.2" font-family="Helvetica,sans-Serif" font-size="9.00" fill="#78909c">6:2</text>
</g>
</g>
</svg>
